<?xml version="1.0" encoding="UTF-8" standalone="no"?>
<svg width="236px" height="45px" viewBox="0 0 236 45" version="1.1" xmlns="http://www.w3.org/2000/svg" xmlns:xlink="http://www.w3.org/1999/xlink">
    <!-- Generator: Sketch 46.2 (44496) - http://www.bohemiancoding.com/sketch -->
    <title>Group</title>
    <desc>Created with Sketch.</desc>
    <defs></defs>
    <g id="Page-1" stroke="none" stroke-width="1" fill="none" fill-rule="evenodd">
        <g id="Group" fill-rule="nonzero" fill="#3A47F3">
            <g id="Logo">
                <path d="M12,37.6 C12,36.27452 13.07452,35.2 14.4,35.2 L33.6,35.2 C34.92552,35.2 36,36.27452 36,37.6 C36,38.92548 34.92552,40 33.6,40 L14.4,40 C13.07452,40 12,38.92548 12,37.6 Z" id="path0_fill"></path>
                <path d="M0,20 C0,18.67452 1.07452,17.6 2.4,17.6 L45.6,17.6 C46.92552,17.6 48,18.67452 48,20 C48,21.32548 46.92552,22.4 45.6,22.4 L2.4,22.4 C1.07452,22.4 0,21.32548 0,20 Z" id="path1_fill"></path>
                <path d="M3.2,11.2 C3.2,9.87452 4.27452,8.8 5.6,8.8 L10.4,8.8 C11.72552,8.8 12.8,9.87452 12.8,11.2 C12.8,12.52548 11.72552,13.6 10.4,13.6 L5.6,13.6 C4.27452,13.6 3.2,12.52548 3.2,11.2 Z" id="path2_fill"></path>
                <path d="M17.6,11.2 C17.6,9.87452 18.67452,8.8 20,8.8 L21.6,8.8 C22.92548,8.8 24,9.87452 24,11.2 C24,12.52548 22.92548,13.6 21.6,13.6 L20,13.6 C18.67452,13.6 17.6,12.52548 17.6,11.2 Z" id="path3_fill"></path>
                <path d="M28.8,11.2 C28.8,9.87452 29.87452,8.8 31.2,8.8 L42.4,8.8 C43.72552,8.8 44.8,9.87452 44.8,11.2 C44.8,12.52548 43.72552,13.6 42.4,13.6 L31.2,13.6 C29.87452,13.6 28.8,12.52548 28.8,11.2 Z" id="path4_fill"></path>
                <path d="M35.2,28.8 C35.2,27.47452 36.27452,26.4 37.6,26.4 L42.4,26.4 C43.72552,26.4 44.8,27.47452 44.8,28.8 C44.8,30.12548 43.72552,31.2 42.4,31.2 L37.6,31.2 C36.27452,31.2 35.2,30.12548 35.2,28.8 Z" id="path2_fill"></path>
                <path d="M24,28.8 C24,27.47452 25.07452,26.4 26.4,26.4 L28,26.4 C29.32548,26.4 30.4,27.47452 30.4,28.8 C30.4,30.12548 29.32548,31.2 28,31.2 L26.4,31.2 C25.07452,31.2 24,30.12548 24,28.8 Z" id="path3_fill"></path>
                <path d="M3.2,28.8 C3.2,27.47452 4.27452,26.4 5.6,26.4 L16.8,26.4 C18.12552,26.4 19.2,27.47452 19.2,28.8 C19.2,30.12548 18.12552,31.2 16.8,31.2 L5.6,31.2 C4.27452,31.2 3.2,30.12548 3.2,28.8 Z" id="path4_fill"></path>
                <path d="M12,2.4 C12,1.07452 13.07452,0 14.4,0 L33.6,0 C34.92552,0 36,1.07452 36,2.4 C36,3.72548 34.92552,4.8 33.6,4.8 L14.4,4.8 C13.07452,4.8 12,3.72548 12,2.4 Z" id="path0_fill"></path>
            </g>
            <path d="M81.2706763,20.4277438 L81.2706763,19.9531387 C81.2706763,13.6668042 78.1913217,10.5825987 73.8691782,10.5825987 C69.3689743,10.5825987 66.2896197,13.7257659 66.2896197,19.9531387 L66.2896197,20.4277438 C66.2896197,26.6551166 69.2505097,29.6789046 73.9280471,29.6789046 C78.6644536,29.6789046 81.2706763,26.4767757 81.2706763,20.4277438 M58.6809902,4.71190772 L65.9051546,4.71190772 C66.2808984,4.71190772 66.585418,5.01690705 66.585418,5.39324272 L66.585418,9.57515466 C68.3027923,6.60960039 71.9148745,4 76.4739474,4 C84.0535059,4 89.974559,9.63411635 89.974559,19.894177 L89.974559,20.3687821 C89.974559,30.6281149 84.1719705,36.3808825 76.4739474,36.3808825 C71.6779452,36.3808825 68.1843276,34.0085847 66.585418,30.9840688 L66.585418,43.5589214 C66.585418,43.9352571 66.2808984,44.2402564 65.9051546,44.2402564 L58.6809902,44.2402564 C58.3045196,44.2402564 58,43.9352571 58,43.5589214 L58,5.39324272 C58,5.01690705 58.3045196,4.71190772 58.6809902,4.71190772" id="Fill-1"></path>
            <path d="M111.598998,24.8753473 L111.598998,22.9478098 C111.598998,22.5714742 111.294479,22.2657469 110.918735,22.2657469 L108.282714,22.2657469 C103.308652,22.2657469 100.407358,23.3328806 100.407358,26.6543887 C100.407358,28.9080352 101.769338,30.3908124 104.907561,30.3908124 C108.696977,30.3908124 111.598998,28.3147788 111.598998,24.8753473 M92,27.1282659 C92,19.8934491 98.6311144,17.1659253 108.105381,17.1659253 L110.918735,17.1659253 C111.294479,17.1659253 111.598998,16.8601981 111.598998,16.4838624 L111.598998,15.9204508 C111.598998,12.2429888 110.473947,10.2266448 106.566067,10.2266448 C103.417669,10.2266448 101.866726,11.7225246 101.384146,14.088999 C101.32019,14.3990938 101.0382,14.6152866 100.722052,14.6152866 L93.9354075,14.6152866 C93.532773,14.6152866 93.2071768,14.2658841 93.2573244,13.8655269 C94.1207356,7.03907438 99.7816026,4 107.098068,4 C114.677626,4 120.065951,7.08347762 120.065951,15.5048073 L120.065951,35.0466015 C120.065951,35.4229372 119.761432,35.7279365 119.385688,35.7279365 L112.397726,35.7279365 C112.021983,35.7279365 111.717463,35.4229372 111.717463,35.0466015 L111.717463,31.9915128 C109.940493,34.4824619 107.217259,36.3808826 102.361661,36.3808826 C96.7364065,36.3808826 92,33.6526309 92,27.1282659" id="Fill-4"></path>
            <path d="M123.680263,4.45230524 L130.905155,4.45230524 C131.280899,4.45230524 131.585418,4.75730456 131.585418,5.13364023 L131.585418,10.3826858 C133.446694,6.43006933 136.273131,4.25067084 140.884531,4.00099359 C141.269723,3.97988385 141.592412,4.29798577 141.592412,4.68451236 L141.592412,11.3056909 C141.592412,11.6812987 141.287892,11.9804746 140.913602,11.986298 C134.994729,12.0809278 131.585418,14.2151951 131.585418,19.9308387 L131.585418,34.7877269 C131.585418,35.1640625 131.280899,35.4690619 130.905155,35.4690619 L123.680263,35.4690619 C123.30452,35.4690619 123,35.1640625 123,34.7877269 L123,5.13364023 C123,4.75730456 123.30452,4.45230524 123.680263,4.45230524" id="Fill-6"></path>
            <path d="M143.680234,26.0028985 L150.362223,26.0028985 C150.682005,26.0028985 150.966902,26.2256426 151.026497,26.5401049 C151.488727,28.9946579 152.90667,30.3915403 156.390112,30.3915403 C159.70567,30.3915403 161.244983,29.1460657 161.244983,27.0103425 C161.244983,24.8760752 159.409871,23.9858266 154.968536,23.3336085 C146.737786,22.0881339 143.540693,19.716564 143.540693,13.6668043 C143.540693,7.20285683 149.462473,4 155.797789,4 C162.399832,4 167.416048,6.30168939 168.478596,12.7998491 C168.54764,13.2205881 168.233672,13.6078426 167.807781,13.6078426 L161.258065,13.6078426 C160.954273,13.6078426 160.679551,13.407664 160.604693,13.1128556 C160.041441,10.9036123 158.619138,9.87141892 155.857385,9.87141892 C153.073828,9.87141892 151.475645,11.1758551 151.475645,13.0735478 C151.475645,15.0309301 152.955364,15.8025274 157.455568,16.4547455 C165.213186,17.5808409 169.475734,19.5382232 169.475734,26.1805115 C169.475734,32.8817614 164.620863,36.3808825 156.448981,36.3808825 C148.423908,36.3808825 143.626453,32.9836705 143.003605,26.7686724 C142.962905,26.3610361 143.271785,26.0028985 143.680234,26.0028985" id="Fill-8"></path>
            <path d="M194.678353,16.8689331 C194.381828,12.1840271 192.013988,9.9303806 187.928047,9.9303806 C184.079036,9.9303806 181.474267,12.4802914 180.822348,16.8689331 L194.678353,16.8689331 Z M172,20.6053568 L172,20.1307517 C172,10.3452961 178.92764,4 187.928047,4 C195.921869,4 203.026842,8.68490604 203.026842,19.7755257 L203.026842,22.1478235 L180.70461,22.1478235 C180.940812,27.3073347 183.724369,30.272161 188.401906,30.272161 C192.120824,30.272161 194.070767,28.760995 194.739402,26.4214537 C194.821528,26.1324686 195.099884,25.9432089 195.40077,25.9432089 L202.151076,25.9432089 C202.588595,25.9432089 202.90765,26.3508452 202.816803,26.7795913 C201.503517,32.9545537 196.273629,36.3808826 188.164977,36.3808826 C178.809175,36.3808826 172,30.5094636 172,20.6053568 L172,20.6053568 Z" id="Fill-11"></path>
            <path d="M205,20.6053568 L205,20.1307516 C205,10.1079936 212.164569,4 220.986916,4 C227.94508,4 234.400314,6.96409841 235.472311,15.2820631 C235.523912,15.684604 235.199769,16.039102 234.794228,16.039102 L228.003222,16.039102 C227.676899,16.039102 227.406538,15.8047111 227.335314,15.4866092 C226.616532,12.2517239 224.475446,10.7609396 221.164976,10.7609396 C216.724368,10.7609396 213.763478,14.0817198 213.763478,20.0121003 L213.763478,20.4867055 C213.763478,26.7140782 216.546308,29.9162072 221.343037,29.9162072 C224.604813,29.9162072 227.280079,28.09713 227.894206,24.5077467 C227.950894,24.1765421 228.224163,23.926137 228.559934,23.926137 L234.98755,23.926137 C235.387278,23.926137 235.710694,24.271172 235.66636,24.6686174 C234.890889,31.6217284 229.621755,36.3808825 220.928047,36.3808825 C211.86877,36.3808825 205,30.7467662 205,20.6053568" id="Fill-13"></path>
        </g>
    </g>
</svg>